<svg xmlns="http://www.w3.org/2000/svg" viewBox="0 0 32 32" width="25" height="25">
	<style>
		tspan { white-space:pre }
		.shp0 { fill: #000000 } 
	</style>
	<path id="Shape 1" class="shp0" d="M10.48 12.39C9.7 12.71 9.01 13.16 8.41 13.76C7.81 14.36 7.35 15.05 7.03 15.83C6.86 16.21 6.59 16.39 6.19 16.39C6.09 16.39 5.98 16.37 5.86 16.32C5.63 16.23 5.46 16.07 5.37 15.85C5.28 15.63 5.28 15.4 5.37 15.17C5.78 14.16 6.37 13.27 7.14 12.5C7.92 11.73 8.8 11.14 9.81 10.73C10.04 10.64 10.27 10.64 10.49 10.73C10.71 10.82 10.87 10.98 10.97 11.22C11.06 11.45 11.06 11.68 10.97 11.9C10.87 12.12 10.71 12.29 10.48 12.39L10.48 12.39ZM20.72 9.65L19.77 8.71C19.59 8.53 19.38 8.44 19.13 8.44C18.89 8.44 18.68 8.53 18.5 8.71L17.61 9.6C16.11 8.77 14.51 8.36 12.82 8.36C11.49 8.36 10.22 8.62 9.01 9.13C7.79 9.65 6.75 10.35 5.87 11.22C4.99 12.1 4.29 13.15 3.77 14.36C3.26 15.58 3 16.85 3 18.18C3 19.51 3.26 20.78 3.77 21.99C4.29 23.21 4.99 24.25 5.87 25.13C6.75 26.01 7.79 26.71 9.01 27.23C10.22 27.74 11.49 28 12.82 28C14.15 28 15.42 27.74 16.64 27.23C17.85 26.71 18.9 26.01 19.78 25.13C20.65 24.25 21.35 23.21 21.87 21.99C22.38 20.78 22.64 19.51 22.64 18.18C22.64 16.49 22.23 14.89 21.4 13.39L22.29 12.5C22.47 12.32 22.56 12.11 22.56 11.87C22.56 11.62 22.47 11.41 22.29 11.23L21.35 10.28L24.75 6.89L24.11 6.25L20.72 9.65ZM24.36 5.16C24.36 5.03 24.31 4.93 24.22 4.84L22.96 3.57C22.87 3.49 22.76 3.45 22.64 3.45C22.52 3.45 22.41 3.49 22.32 3.57C22.24 3.67 22.2 3.77 22.2 3.89C22.2 4.01 22.24 4.12 22.32 4.21L23.59 5.47C23.68 5.56 23.79 5.61 23.91 5.61C24.02 5.61 24.13 5.56 24.22 5.47C24.31 5.39 24.36 5.28 24.36 5.16ZM27.55 8.36C27.55 8.24 27.51 8.13 27.43 8.04L26.16 6.78C26.07 6.69 25.97 6.64 25.84 6.64C25.72 6.64 25.61 6.69 25.53 6.78C25.44 6.86 25.39 6.97 25.39 7.09C25.39 7.22 25.44 7.32 25.53 7.41L26.79 8.68C26.89 8.76 27 8.8 27.11 8.8C27.22 8.8 27.33 8.76 27.43 8.68C27.51 8.59 27.55 8.48 27.55 8.36ZM27.55 5.68L26.21 5.68C26.08 5.68 25.98 5.72 25.89 5.8C25.81 5.89 25.77 5.99 25.77 6.13C25.77 6.26 25.81 6.36 25.89 6.45C25.98 6.53 26.08 6.57 26.21 6.57L27.55 6.57C27.68 6.57 27.79 6.53 27.87 6.45C27.96 6.36 28 6.26 28 6.13C28 5.99 27.96 5.89 27.87 5.8C27.79 5.72 27.68 5.68 27.55 5.68L27.55 5.68ZM25.2 3.13C25.11 3.04 25.01 3 24.87 3C24.74 3 24.64 3.04 24.55 3.13C24.47 3.21 24.43 3.32 24.43 3.45L24.43 4.79C24.43 4.92 24.47 5.02 24.55 5.11C24.64 5.19 24.74 5.23 24.87 5.23C25.01 5.23 25.11 5.19 25.2 5.11C25.28 5.02 25.32 4.92 25.32 4.79L25.32 3.45C25.32 3.32 25.28 3.21 25.2 3.13ZM27.55 3.89C27.55 3.77 27.51 3.67 27.43 3.57C27.33 3.49 27.23 3.45 27.11 3.45C26.99 3.45 26.88 3.49 26.79 3.57L25.53 4.84C25.44 4.93 25.39 5.03 25.39 5.16C25.39 5.28 25.44 5.39 25.53 5.47C25.62 5.56 25.73 5.61 25.85 5.61C25.96 5.61 26.07 5.56 26.16 5.47L27.43 4.21C27.51 4.12 27.55 4.01 27.55 3.89Z" />
</svg>